<svg width="92" height="20" viewBox="0 0 92 20" fill="none" xmlns="http://www.w3.org/2000/svg">
<path d="M19.458 7.86163H12.0277L9.73259 0.758789L7.43033 7.86163L0 7.85443L6.01742 12.2487L3.71517 19.3443L9.73259 14.9573L15.7428 19.3443L13.4478 12.2487L19.458 7.86163Z" fill="white"/>
<path d="M13.964 13.855L13.4476 12.2485L9.73242 14.9571L13.964 13.855Z" fill="white"/>
<path d="M24.131 4.3667H33.2307V6.07195H29.6527V15.658H27.6852V6.07195H24.123V4.3667H24.131ZM32.842 7.48236H34.5239V9.06011H34.5556C34.6112 8.83699 34.7143 8.62185 34.8651 8.41467C35.0158 8.20749 35.1983 8.00828 35.4125 7.84094C35.6267 7.66563 35.8647 7.53017 36.1265 7.41861C36.3883 7.31502 36.658 7.25924 36.9278 7.25924C37.134 7.25924 37.2848 7.26721 37.3641 7.27518C37.4435 7.28315 37.5228 7.29909 37.6101 7.30705V9.04417C37.4831 9.02027 37.3562 9.00433 37.2213 8.9884C37.0864 8.97246 36.9595 8.96449 36.8326 8.96449C36.5311 8.96449 36.2455 9.02824 35.9757 9.14776C35.706 9.26729 35.4759 9.45056 35.2776 9.68165C35.0793 9.9207 34.9206 10.2076 34.8016 10.5582C34.6826 10.9088 34.627 11.3072 34.627 11.7614V15.65H32.8341V7.48236H32.842ZM45.853 15.658H44.0918V14.5185H44.06C43.8379 14.9329 43.5126 15.2596 43.0763 15.5066C42.6399 15.7536 42.1956 15.8811 41.7434 15.8811C40.6724 15.8811 39.8949 15.6181 39.4189 15.0843C38.9429 14.5504 38.7049 13.7456 38.7049 12.6698V7.48236H40.4979V12.4945C40.4979 13.2117 40.6327 13.7216 40.9104 14.0165C41.1801 14.3113 41.5689 14.4627 42.0608 14.4627C42.4416 14.4627 42.751 14.4069 43.0049 14.2874C43.2587 14.1679 43.465 14.0165 43.6157 13.8173C43.7744 13.626 43.8855 13.387 43.9569 13.116C44.0283 12.8451 44.06 12.5503 44.06 12.2316V7.49033H45.853V15.658ZM48.9074 13.0364C48.9629 13.5623 49.1613 13.9288 49.5024 14.144C49.8515 14.3512 50.264 14.4627 50.748 14.4627C50.9146 14.4627 51.105 14.4468 51.3192 14.4229C51.5334 14.399 51.7397 14.3432 51.9222 14.2715C52.1126 14.1998 52.2633 14.0882 52.3902 13.9448C52.5092 13.8013 52.5648 13.6181 52.5568 13.387C52.5489 13.1559 52.4616 12.9646 52.303 12.8212C52.1443 12.6698 51.946 12.5583 51.7 12.4626C51.4541 12.375 51.1764 12.2953 50.8591 12.2316C50.5417 12.1678 50.2244 12.0961 49.8991 12.0244C49.5659 11.9527 49.2406 11.857 48.9312 11.7534C48.6218 11.6499 48.3441 11.5064 48.0982 11.3231C47.8522 11.1478 47.6539 10.9168 47.5111 10.6379C47.3604 10.359 47.289 10.0163 47.289 9.60196C47.289 9.15573 47.4 8.78918 47.6142 8.48638C47.8285 8.18358 48.1061 7.94453 48.4314 7.76125C48.7646 7.57798 49.1296 7.45049 49.5342 7.3708C49.9388 7.29909 50.3275 7.25924 50.6925 7.25924C51.1129 7.25924 51.5175 7.30705 51.8984 7.39471C52.2792 7.48236 52.6282 7.62579 52.9376 7.83297C53.2471 8.03218 53.5009 8.29514 53.7072 8.61388C53.9135 8.93262 54.0404 9.32307 54.0959 9.77727H52.2236C52.1364 9.34697 51.946 9.05214 51.6365 8.90871C51.3271 8.75731 50.9701 8.68559 50.5735 8.68559C50.4465 8.68559 50.2958 8.69356 50.1212 8.71747C49.9467 8.74137 49.788 8.78122 49.6294 8.83699C49.4786 8.89277 49.3517 8.98043 49.2406 9.09198C49.1375 9.20354 49.0819 9.34697 49.0819 9.53025C49.0819 9.75336 49.1613 9.92867 49.312 10.0641C49.4628 10.1996 49.6611 10.3112 49.907 10.4068C50.153 10.4944 50.4307 10.5741 50.748 10.6379C51.0653 10.7016 51.3906 10.7733 51.7238 10.845C52.0491 10.9168 52.3664 11.0124 52.6838 11.116C53.0011 11.2196 53.2788 11.363 53.5247 11.5463C53.7707 11.7295 53.969 11.9527 54.1197 12.2236C54.2705 12.4945 54.3498 12.8372 54.3498 13.2356C54.3498 13.7216 54.2387 14.128 54.0166 14.4707C53.7945 14.8054 53.5089 15.0843 53.1598 15.2914C52.8107 15.4986 52.414 15.658 51.9856 15.7536C51.5572 15.8492 51.1288 15.897 50.7083 15.897C50.1926 15.897 49.7166 15.8413 49.2803 15.7217C48.8439 15.6022 48.4631 15.4269 48.1458 15.1958C47.8285 14.9568 47.5746 14.6619 47.3921 14.3113C47.2096 13.9607 47.1144 13.5384 47.0986 13.0523H48.9074V13.0364ZM54.8258 7.48236H56.1825V5.02808H57.9754V7.48236H59.5939V8.82903H57.9754V13.1957C57.9754 13.387 57.9834 13.5463 57.9992 13.6898C58.0151 13.8252 58.0548 13.9448 58.1103 14.0404C58.1658 14.136 58.2531 14.2077 58.3721 14.2555C58.4911 14.3033 58.6419 14.3273 58.8481 14.3273C58.9751 14.3273 59.102 14.3273 59.2289 14.3193C59.3559 14.3113 59.4828 14.2954 59.6098 14.2635V15.658C59.4114 15.6819 59.2131 15.6978 59.0306 15.7217C58.8402 15.7456 58.6498 15.7536 58.4515 15.7536C57.9754 15.7536 57.5946 15.7058 57.309 15.6181C57.0234 15.5305 56.7933 15.395 56.6347 15.2197C56.4681 15.0444 56.3649 14.8293 56.3015 14.5663C56.2459 14.3033 56.2063 14.0005 56.1983 13.6659V8.84496H54.8417V7.48236H54.8258ZM60.8633 7.48236H62.561V8.58997H62.5928C62.8466 8.11187 63.1957 7.77719 63.6479 7.57001C64.1001 7.36283 64.5841 7.25924 65.1156 7.25924C65.7582 7.25924 66.3136 7.3708 66.7896 7.60189C67.2656 7.825 67.6623 8.13577 67.9796 8.53419C68.297 8.93262 68.527 9.39479 68.6857 9.9207C68.8444 10.4466 68.9237 11.0124 68.9237 11.61C68.9237 12.1598 68.8523 12.6937 68.7095 13.2037C68.5667 13.7216 68.3525 14.1758 68.0669 14.5743C67.7813 14.9727 67.4163 15.2835 66.9721 15.5225C66.5278 15.7616 66.0121 15.8811 65.4092 15.8811C65.1474 15.8811 64.8855 15.8572 64.6237 15.8094C64.3619 15.7616 64.1081 15.6819 63.8701 15.5783C63.632 15.4747 63.402 15.3392 63.2036 15.1719C62.9974 15.0046 62.8308 14.8133 62.688 14.5982H62.6562V18.678H60.8633V7.48236ZM67.1307 11.5781C67.1307 11.2116 67.0831 10.853 66.9879 10.5024C66.8927 10.1518 66.7499 9.84899 66.5595 9.57806C66.3691 9.30713 66.1311 9.09198 65.8534 8.93262C65.5678 8.77325 65.2426 8.68559 64.8776 8.68559C64.1239 8.68559 63.5527 8.94855 63.1719 9.47447C62.7911 10.0004 62.6007 10.7016 62.6007 11.5781C62.6007 11.9925 62.6483 12.375 62.7514 12.7256C62.8546 13.0762 62.9974 13.379 63.2036 13.634C63.402 13.889 63.64 14.0882 63.9177 14.2316C64.1953 14.383 64.5206 14.4547 64.8856 14.4547C65.2981 14.4547 65.6392 14.3671 65.9248 14.1998C66.2105 14.0324 66.4405 13.8093 66.623 13.5463C66.8055 13.2754 66.9403 12.9726 67.0197 12.63C67.0911 12.2873 67.1307 11.9367 67.1307 11.5781ZM70.2962 4.3667H72.0892V6.07195H70.2962V4.3667ZM70.2962 7.48236H72.0892V15.658H70.2962V7.48236ZM73.6918 4.3667H75.4848V15.658H73.6918V4.3667ZM80.9827 15.8811C80.3321 15.8811 79.753 15.7695 79.2453 15.5544C78.7375 15.3392 78.3091 15.0364 77.9521 14.6619C77.603 14.2794 77.3333 13.8252 77.1508 13.2993C76.9683 12.7734 76.8731 12.1917 76.8731 11.5622C76.8731 10.9407 76.9683 10.3669 77.1508 9.84102C77.3333 9.3151 77.603 8.8609 77.9521 8.47841C78.3012 8.09593 78.7375 7.8011 79.2453 7.58595C79.753 7.3708 80.3321 7.25924 80.9827 7.25924C81.6332 7.25924 82.2124 7.3708 82.7201 7.58595C83.2279 7.8011 83.6563 8.1039 84.0133 8.47841C84.3624 8.8609 84.6321 9.3151 84.8146 9.84102C84.9971 10.3669 85.0923 10.9407 85.0923 11.5622C85.0923 12.1917 84.9971 12.7734 84.8146 13.2993C84.6321 13.8252 84.3624 14.2794 84.0133 14.6619C83.6642 15.0444 83.2279 15.3392 82.7201 15.5544C82.2124 15.7695 81.6332 15.8811 80.9827 15.8811ZM80.9827 14.4547C81.3794 14.4547 81.7285 14.3671 82.022 14.1998C82.3155 14.0324 82.5535 13.8093 82.7439 13.5384C82.9343 13.2674 83.0692 12.9567 83.1644 12.614C83.2517 12.2714 83.2993 11.9208 83.2993 11.5622C83.2993 11.2116 83.2517 10.8689 83.1644 10.5183C83.0772 10.1677 82.9343 9.86492 82.7439 9.594C82.5535 9.32307 82.3155 9.10792 82.022 8.94058C81.7285 8.77325 81.3794 8.68559 80.9827 8.68559C80.586 8.68559 80.2369 8.77325 79.9434 8.94058C79.6499 9.10792 79.4119 9.33104 79.2215 9.594C79.031 9.86492 78.8962 10.1677 78.801 10.5183C78.7137 10.8689 78.6661 11.2116 78.6661 11.5622C78.6661 11.9208 78.7137 12.2714 78.801 12.614C78.8882 12.9567 79.031 13.2674 79.2215 13.5384C79.4119 13.8093 79.6499 14.0324 79.9434 14.1998C80.2369 14.3751 80.586 14.4547 80.9827 14.4547ZM85.6159 7.48236H86.9725V5.02808H88.7655V7.48236H90.3839V8.82903H88.7655V13.1957C88.7655 13.387 88.7734 13.5463 88.7893 13.6898C88.8052 13.8252 88.8448 13.9448 88.9004 14.0404C88.9559 14.136 89.0432 14.2077 89.1622 14.2555C89.2812 14.3033 89.4319 14.3273 89.6382 14.3273C89.7651 14.3273 89.8921 14.3273 90.019 14.3193C90.1459 14.3113 90.2729 14.2954 90.3998 14.2635V15.658C90.2015 15.6819 90.0031 15.6978 89.8206 15.7217C89.6302 15.7456 89.4398 15.7536 89.2415 15.7536C88.7655 15.7536 88.3847 15.7058 88.0991 15.6181C87.8135 15.5305 87.5834 15.395 87.4247 15.2197C87.2581 15.0444 87.155 14.8293 87.0915 14.5663C87.036 14.3033 86.9963 14.0005 86.9884 13.6659V8.84496H85.6318V7.48236H85.6159Z" fill="white"/>
</svg>
